# xmcd
#
# Track frame offsets: 
#        182
#        12920
#        24945
#        34520
#        48127
#        62932
#        78597
#        92385
#        103460
#        121037
#        133755
#        149612
#        160480
#        175215
#        189927
#        205412
#
# Disc length: 2896 seconds
#
# Revision: 2
# Processed by: cddbd v1.5.2PL0 Copyright (c) Steve Scherf et al.
# Submitted via: ExactAudioCopy v0.99pb3
#
DISCID=d60b4e10
DTITLE=Various Artist - Anthology Of British Blues Volume 2
DYEAR=1991
DGENRE=Blues
TTITLE0=Cyril Davis and The All Stars - Someday Baby
TTITLE1=Jeff Beck and The All Stars - Steelin'
TTITLE2=Jimmy Page and The All Stars - L.A. Breakdown
TTITLE3=Nicky Hopkins and The All Stars - Piano Shuffle
TTITLE4=Santa Barbera Machine Head - Porcupine Juice
TTITLE5=Stuff Smith - Howlin' for my Darling
TTITLE6=Rod Stewaert and P.P. Arnold - Come Home Baby
TTITLE7=Eric Clapton and Jimmy Page - Miles Road
TTITLE8=Albert Lee and Tony Colton - The Next Milestone
TTITLE9=Earl Vince and The Valiants - Somebody's Gonna Get Their Head Ki
TTITLE9=cked in Tonight
TTITLE10=Dave Kelly - New Death Matter
TTITLE11=Jeff Beck and The All Stars - Chuckles
TTITLE12=Rod Stewart - So Much to Say
TTITLE13=Jo-Ann Kelly - Backwater Blues
TTITLE14=Jimmy Page and The All Stars - Down in my Boots
TTITLE15=Santa Barbera Machine Head - Rubber Monkey
EXTD=
EXTT0=
EXTT1=
EXTT2=
EXTT3=
EXTT4=
EXTT5=
EXTT6=
EXTT7=
EXTT8=
EXTT9=
EXTT10=
EXTT11=
EXTT12=
EXTT13=
EXTT14=
EXTT15=
PLAYORDER=
